<svg width="125" height="68" viewBox="0 0 125 68" fill="none" xmlns="http://www.w3.org/2000/svg">
<path d="M53.2687 14.9126C54.8439 13.9408 55.0576 10.8359 54.9542 10.7911C54.8818 10.7636 54.5027 11.9524 53.703 12.59C52.1416 13.8374 48.319 11.1219 48.1088 8.19626C47.8813 5.01902 51.9175 2.02441 54.8198 2.29665C58.2839 2.62402 61.6859 7.74483 61.5618 15.1917C62.1099 13.9201 66.6873 3.76121 77.3759 1.16635C87.3132 -1.24588 98.3741 3.89216 104.065 14.0614C104.065 14.0614 118.483 9.54366 122.523 21.684C126.656 34.107 126.545 51.3751 107.981 54.4386C96.9506 56.2581 92.8799 52.7432 92.8799 52.7432C92.8799 52.7432 94.8377 60.0212 89.1814 60.0832C87.5958 60.1005 86.4618 59.4388 86.0965 59.2045C83.5493 57.5711 83.3562 54.3077 83.339 53.9355C83.1081 61.31 77.0795 66.8685 70.6615 66.61C65.2844 66.3929 60.4037 62.1233 59.2283 56.1926C57.3877 58.2293 53.9098 62.3783 48.5396 62.5919C40.1638 62.9262 37.3408 53.3393 24.7391 50.4171C17.9247 48.8388 16.6184 51.1959 11.8134 48.8491C5.83317 45.9235 -0.0126881 38.418 0.690469 29.4583C1.3626 20.8708 7.9254 12.4797 16.1013 11.7629C20.3444 11.3907 23.8154 13.1965 25.6077 14.3371C30.3678 8.83033 34.2249 7.82754 36.7307 7.8103C44.3931 7.76551 50.0183 16.9009 53.2618 14.9022L53.2687 14.9126Z" fill="#E3D6BF"/>
<path d="M53.2304 14.8539C54.4541 13.989 54.8539 12.2694 54.8918 10.8393C54.8918 10.8083 54.8746 10.8807 54.9849 10.8634C55.0056 10.8496 54.9849 10.8634 54.9849 10.8703C54.9746 10.8875 54.9608 10.9117 54.9504 10.9323L54.8091 11.2149C54.4265 11.9489 53.9198 12.8414 53.0133 12.969C50.6177 13.1275 47.9775 10.2948 47.9947 7.95497C48.0188 4.63644 52.1757 1.57636 55.3572 2.19664C60.3275 3.55094 61.9923 10.6877 61.9234 15.2054L61.2237 15.0538C61.6718 14.0028 62.1923 12.9965 62.7748 12.0247C66.7938 5.08442 74.077 -0.101862 82.2943 0.00151867C89.2155 -0.067402 95.9059 3.21667 100.559 8.25133C102.103 9.93644 103.441 11.8007 104.568 13.7857L103.899 13.5203C105.578 13.0517 107.243 12.8208 108.949 12.7415C116.173 12.4348 121.468 15.6569 123.291 22.8694C124.332 26.4809 124.983 30.2301 124.997 33.9932C125.145 45.248 119.275 52.8224 108.046 54.666C103.737 55.3448 99.1769 55.5999 94.9925 54.1422C94.1652 53.8389 93.4172 53.5116 92.6969 52.9671L93.1622 52.6742C94.0101 55.9238 93.593 60.345 89.3465 60.4381C86.7648 60.6104 84.2831 58.8529 83.4559 56.4166C83.1525 55.6274 82.9767 54.8142 82.9182 53.963L83.773 53.9561C83.6868 60.2968 78.813 66.4032 72.3398 67.0958C65.8011 67.9263 59.7588 62.6022 58.611 56.3235L59.7071 56.6268C57.4218 59.2802 54.5644 61.9922 51.0003 62.8951C44.1446 64.7387 39.9532 59.7971 35.0449 56.1271C30.5157 52.7121 24.9766 50.4584 19.2583 50.5824C18.1277 50.6065 16.9558 50.7513 15.6908 50.6858C14.4293 50.6307 13.1781 50.2619 12.0579 49.7657C6.54289 47.2329 2.3791 42.0914 0.714275 36.2917C-0.623102 31.6361 -0.0267982 26.5291 2.03786 22.1837C4.98147 15.7327 11.7718 10.2948 19.1653 11.4975C21.5401 11.8662 23.784 12.8139 25.7694 14.1061L25.404 14.1613C39.6602 -1.94549 48.0912 17.3316 53.2339 14.8539H53.2304ZM53.3028 14.9711C48.0671 17.6383 39.5189 -1.849 25.6695 14.7161C19.3031 10.5671 12.0544 11.463 6.87724 17.0318C2.22055 21.9631 0.0317986 29.3548 2.02752 35.923C3.61652 41.2988 7.51146 46.0991 12.6438 48.4321C14.7809 49.4659 16.8696 49.235 19.2135 49.1144C25.2386 48.98 31.1775 51.3509 35.9031 54.9796C39.5361 57.5917 42.7727 61.5236 47.4053 61.9027C52.0654 62.3127 55.9018 59.1389 58.7592 55.779L59.614 54.8314L59.8553 56.0823C60.8721 61.7717 66.2699 66.6961 72.2122 66.0034C78.1546 65.4211 82.7458 59.8075 82.9147 53.9354L83.7695 53.9285C83.8557 55.3965 84.3451 56.9507 85.3413 58.0603C86.7579 59.6903 89.5258 60.3209 91.4008 59.1424C92.6486 58.2705 92.9381 56.5889 92.9002 55.1312C92.8933 54.0974 92.6624 53.0188 92.4108 52.0229C95.6818 54.7969 100.804 54.9106 104.895 54.5971C107.329 54.3868 109.838 53.9768 112.154 53.1911C122.86 49.7623 125.711 39.2725 123.984 29.0964C123.674 27.077 123.164 25.0473 122.571 23.0934C121.299 18.5171 118.579 15.2089 113.802 14.1578C110.524 13.4342 106.981 13.7822 103.796 14.7437C102.641 12.7071 101.273 10.7876 99.6767 9.08182C93.7033 2.65841 84.3796 -0.587753 75.8831 2.20009C68.9929 4.46758 63.8364 10.3913 61.1548 16.987C61.3616 13.1171 61.0651 8.97844 58.9557 5.62545C57.6976 3.53026 55.3951 1.81069 52.872 2.73078C50.6005 3.46134 48.3083 5.42558 48.2291 7.95152C48.1843 10.1846 50.7005 12.9379 52.9926 12.8035C53.9543 12.6519 54.4127 11.6388 54.816 10.86C54.8298 10.8359 54.8401 10.8117 54.8608 10.7842C54.8746 10.7704 54.8711 10.76 54.9125 10.729C54.916 10.7221 54.9746 10.7118 54.9918 10.7256C55.0814 10.7842 55.0504 10.9048 55.0573 10.9806C54.9435 12.4279 54.5816 14.0889 53.3097 14.9745L53.3028 14.9711Z" fill="#2B1A12"/>
<path d="M22.2298 43.1728C19.9549 43.1728 17.973 42.8213 16.2909 42.1183C14.6054 41.4153 13.3025 40.4469 12.3822 39.2167C11.4619 37.9865 11 36.5874 11 35.0126C11 33.7306 11.2275 32.5624 11.6825 31.5079C12.1375 30.4534 12.7407 29.5747 13.499 28.8717C15.3844 27.1177 18.1591 27.7931 19.7998 29.6643C20.8718 30.8876 21.344 32.6141 21.0407 34.2131C20.2238 34.1889 19.5206 33.6066 19.0691 32.9243C18.6175 32.2419 18.359 31.4562 17.9902 30.7291C17.6214 30.002 17.094 29.2956 16.3323 29.0027C15.05 28.5064 14.0849 29.5988 13.5886 30.643C13.0199 31.8422 12.7338 33.1758 12.7338 34.6438C12.7338 36.2359 13.1474 37.604 13.9746 38.7515C14.8019 39.899 15.9324 40.7778 17.3698 41.3877C18.8071 41.9977 20.4271 42.3044 22.2229 42.3044C23.774 42.3044 25.2458 42.0287 26.6452 41.4808C28.0412 40.9328 29.3269 40.1816 30.5092 39.2339C31.688 38.2828 32.7462 37.2008 33.6871 35.9912C34.6281 34.7817 35.4175 33.517 36.062 32.1937C36.2068 31.8836 36.3516 31.5837 36.4963 31.2943C36.6411 31.0048 36.7859 30.7153 36.9306 30.4259C36.4343 30.4052 35.9828 30.3845 35.5795 30.3638C35.1762 30.3432 34.9004 30.3328 34.7557 30.3328C34.1973 30.3328 33.601 30.3707 32.9737 30.4397C32.3429 30.512 31.7535 30.6533 31.2054 30.8601C30.6574 31.0668 30.2058 31.3873 29.8543 31.8215C29.7095 31.9663 29.6199 32.08 29.5888 32.1627C29.5578 32.2454 29.5096 32.2867 29.451 32.2867C29.3683 32.2867 29.2959 32.2213 29.2338 32.0869C29.1718 31.9525 29.1821 31.8043 29.2648 31.6389C29.7405 30.5844 30.4126 29.8676 31.2813 29.4851C32.1499 29.1026 33.1219 28.9096 34.1973 28.9096C34.4248 28.9096 34.8522 28.9475 35.483 29.0164C36.1137 29.0888 36.779 29.1681 37.4856 29.2473C38.3955 27.4072 39.2262 25.7427 39.9811 24.254C40.736 22.7653 41.4426 21.5248 42.1078 20.5323C40.6188 20.0361 39.0367 19.5984 37.3615 19.2159C35.6863 18.8334 33.8871 18.6404 31.9637 18.6404C30.5367 18.6404 29.2442 18.8369 28.086 19.2297C26.9279 19.6226 25.9386 20.1498 25.1217 20.8114C24.3048 21.4731 23.6775 22.2071 23.2467 23.0135C22.8123 23.8198 22.5952 24.6262 22.5952 25.4326C22.5952 26.3423 22.771 27.066 23.1226 27.6036C23.4741 28.1412 23.9326 28.5306 24.5047 28.7683C25.0735 29.0061 25.656 29.1267 26.2557 29.1267C27.145 29.1267 27.9033 28.9096 28.5341 28.4754C29.1649 28.0412 29.6681 27.5519 30.0404 27.004C30.4126 26.456 30.6401 26.0081 30.7229 25.6531C30.8056 25.3223 30.9297 25.1569 31.0951 25.1569C31.3433 25.1569 31.4467 25.3016 31.4053 25.5911C31.2813 26.5008 30.9607 27.2865 30.4437 27.9482C29.9266 28.6098 29.2959 29.1129 28.5513 29.4506C27.8068 29.7918 27.0209 29.9641 26.1937 29.9641C25.3665 29.9641 24.5289 29.7573 23.743 29.3438C22.9571 28.9303 22.316 28.3307 21.8197 27.545C21.3233 26.7593 21.0751 25.8082 21.0751 24.6917C21.0751 23.7819 21.2751 22.8756 21.6818 21.9762C22.0851 21.0768 22.6952 20.2497 23.5121 19.4951C24.329 18.7404 25.3665 18.1373 26.6315 17.6824C27.893 17.2276 29.382 17.0001 31.0986 17.0001C32.3188 17.0001 33.57 17.1414 34.8522 17.4171C36.1344 17.6962 37.4304 18.0477 38.7471 18.4716C40.0604 18.8954 41.3564 19.3365 42.6386 19.7914C43.0729 19.2332 43.4865 18.8024 43.8795 18.5026C44.2724 18.2028 44.6654 18.0546 45.0583 18.0546C45.2238 18.0546 45.3375 18.0925 45.3995 18.1614C45.4616 18.2338 45.4926 18.3027 45.4926 18.3613C45.4926 18.444 45.4616 18.5371 45.3995 18.6404C45.3375 18.7438 45.2238 18.7955 45.0583 18.7955C44.3758 18.7955 43.7347 19.178 43.135 19.943C44.624 20.4393 46.0544 20.8804 47.4297 21.2629C48.805 21.6454 50.0838 21.8384 51.2626 21.8384C52.1726 21.8384 52.7723 21.7419 53.0619 21.5454C53.3514 21.349 53.4962 21.0768 53.4962 20.7218C53.4962 20.4944 53.5686 20.3807 53.7133 20.3807C53.8167 20.3807 53.9132 20.4496 54.0063 20.5806C54.0994 20.7149 54.1442 20.8735 54.1442 21.0596C54.1442 21.5558 53.8684 21.959 53.3238 22.2691C52.7758 22.5793 52.014 22.7343 51.042 22.7343C49.7598 22.7343 48.4259 22.5207 47.0402 22.0968C45.6546 21.6729 44.1862 21.2043 42.6352 20.6874C42.0768 21.6178 41.5287 22.8343 40.991 24.3333C40.4533 25.8323 39.8225 27.5243 39.0987 29.4024C39.988 29.4851 40.929 29.554 41.9217 29.6023C42.9144 29.654 43.7209 29.6815 44.3414 29.6815C44.5482 29.6815 44.6516 29.7436 44.6516 29.8676C44.6516 30.033 44.4137 30.1778 43.9381 30.3018C43.6279 30.3845 43.1039 30.4466 42.3732 30.4879C41.639 30.5293 40.8773 30.5499 40.0914 30.5499C39.9259 30.5499 39.7191 30.5465 39.471 30.5362C39.2228 30.5258 38.9539 30.5224 38.6644 30.5224C38.4783 30.9979 38.2852 31.4804 38.0888 31.9628C37.8923 32.4487 37.6786 32.9518 37.4511 33.4687C36.5825 35.5157 35.5209 37.1732 34.2697 38.4482C33.0185 39.7198 31.6845 40.702 30.2679 41.3946C28.8512 42.0873 27.4449 42.5594 26.0489 42.804C24.653 43.0522 23.3742 43.1762 22.216 43.1762L22.2298 43.1728Z" fill="#2B1A12"/>
<path d="M48.6893 29.1544C49.4752 29.1544 50.0681 29.4129 50.4714 29.9298C50.8746 30.4467 51.109 31.098 51.1676 31.8837C51.2297 32.8348 51.0746 33.8066 50.7023 34.7991C50.6403 34.9645 50.5782 35.1299 50.5162 35.2953C51.1987 35.3987 51.7984 35.154 52.3154 34.5647C52.8325 33.9755 53.2668 33.1656 53.6183 32.1284C53.9699 31.2186 54.2663 30.3261 54.5042 29.4439C54.742 28.5652 54.9316 27.745 55.0798 26.98C55.1418 26.6492 55.2556 26.4045 55.421 26.2494C55.5865 26.0944 55.7623 26.0186 55.9484 26.0186C56.2173 26.0186 56.4654 26.1495 56.6929 26.4045C56.9204 26.663 57.0342 27.0317 57.0342 27.5038C57.0342 27.5865 57.0273 27.6795 57.0204 27.7829C57.01 27.8863 56.9928 27.9897 56.9721 28.0931C56.8894 28.5273 56.6481 28.9373 56.2448 29.3199C55.8416 29.7024 55.5141 29.9849 55.2659 30.171C55.4727 30.1917 55.6899 30.2089 55.9174 30.2158C56.1449 30.2262 56.3931 30.2296 56.6619 30.2296C57.6339 30.2296 58.5956 30.1676 59.5469 30.0435C59.5883 30.1676 59.609 30.2606 59.609 30.3227C59.609 30.5914 59.5297 30.9326 59.378 31.3461C59.2229 31.7596 59.0609 32.1318 58.8955 32.4626C58.8127 32.6487 58.6473 32.9864 58.3991 33.4689C58.1509 33.9548 57.8821 34.5027 57.5926 35.1126C57.303 35.7226 57.0583 36.3222 56.8653 36.9115C56.6688 37.5007 56.5723 38.0039 56.5723 38.4174C56.5723 38.955 56.7791 39.2238 57.1927 39.2238C57.5029 39.2238 57.8442 39.0273 58.2164 38.6345C58.5887 38.2416 58.961 37.7558 59.3332 37.1768C59.7055 36.5979 60.0398 36.0258 60.3431 35.4538C60.643 34.8852 60.8636 34.4165 61.0118 34.0444C61.26 34.0444 61.3841 34.1374 61.3841 34.3235C61.0945 34.9851 60.7257 35.7295 60.2845 36.5565C59.8399 37.3836 59.3263 38.1279 58.7472 38.7896C58.1682 39.4512 57.5374 39.8647 56.8549 40.0301C56.7929 40.0508 56.6791 40.0612 56.5137 40.0612C56.1208 40.0612 55.7278 39.9026 55.3349 39.5822C54.9419 39.2617 54.7455 38.7413 54.7455 38.0177C54.7455 37.4594 54.8799 36.8184 55.1487 36.0948C55.3969 35.3918 55.7313 34.7095 56.1587 34.0478C56.5826 33.3862 56.886 32.8486 57.0721 32.4351C57.1341 32.2697 57.1651 32.1249 57.1651 32.0009C57.1651 31.6287 56.9342 31.3599 56.4689 31.1945C56.0036 31.0291 55.4004 30.936 54.6524 30.9154L54.2801 31.9388C53.8458 33.3655 53.2909 34.4372 52.6222 35.1505C51.9501 35.8639 51.1504 36.1189 50.2163 35.9121C49.8647 36.5944 49.4201 37.2492 48.8824 37.8798C48.3447 38.5104 47.7656 39.0273 47.1452 39.4305C46.5247 39.8337 45.894 40.0336 45.2528 40.0336C44.467 40.0336 43.8741 39.7717 43.4708 39.2444C43.0675 38.7172 42.8332 38.0728 42.7711 37.3078C42.7091 36.398 42.8642 35.4262 43.2364 34.3924C43.5673 33.4413 44.0258 32.5729 44.6186 31.7872C45.208 31.0015 45.8595 30.3675 46.573 29.8816C47.2865 29.3957 47.9931 29.151 48.6997 29.151L48.6893 29.1544ZM50.2715 33.1863C50.3955 32.6487 50.4369 32.1422 50.3955 31.6666C50.3749 31.1911 50.2611 30.8189 50.0543 30.5501C49.8475 30.2813 49.558 30.1469 49.1857 30.1469C48.7514 30.1469 48.2964 30.333 47.8207 30.7052C47.3451 31.0773 46.8935 31.5736 46.4696 32.1939C46.0456 32.8141 45.6802 33.5068 45.3666 34.2718C45.077 34.9748 44.8599 35.6502 44.7151 36.305C44.5704 36.9563 44.5187 37.5214 44.56 37.9935C44.6014 38.4071 44.7082 38.7379 44.884 38.986C45.0598 39.2341 45.3218 39.3582 45.6768 39.3582C46.1525 39.3582 46.6385 39.1514 47.1348 38.7379C47.6312 38.3243 48.0862 37.8281 48.4998 37.2492C48.9134 36.6702 49.2339 36.1327 49.4614 35.6364C49.1719 35.347 48.9548 35.0437 48.81 34.7232C48.6652 34.4028 48.5928 34.1615 48.5928 33.9927C48.5722 33.6619 48.6342 33.3827 48.779 33.1553C48.9237 32.9279 49.1719 32.8141 49.5235 32.8141C49.813 32.8141 50.0612 32.9382 50.268 33.1863H50.2715Z" fill="#2B1A12"/>
<path d="M63.6711 40.1644C62.5337 40.1644 61.6892 39.8646 61.1446 39.265C60.5965 38.6654 60.3242 37.859 60.3242 36.8459C60.3242 36.3703 60.4173 35.8224 60.6034 35.2021C60.7895 34.5818 61.0377 33.9512 61.3479 33.3102C61.6581 32.6693 61.9994 32.1007 62.3716 31.6045C62.9714 30.7981 63.6332 30.1743 64.357 29.7298C65.0809 29.2853 65.8151 29.0613 66.5596 29.0613C67.3455 29.0613 67.9107 29.2336 68.252 29.5747C68.5932 29.9159 68.7621 30.3156 68.7621 30.7671C68.7621 31.2185 68.6587 31.5872 68.4519 31.9318C68.2451 32.273 68.0107 32.5487 67.7522 32.752C67.4937 32.9587 67.2731 33.0621 67.0869 33.0621C66.9215 33.0621 66.7767 33.0001 66.6526 32.876C66.8181 32.6693 66.9939 32.4212 67.18 32.1317C67.3661 31.8422 67.5006 31.5631 67.5833 31.2943C67.666 31.0462 67.7074 30.7981 67.7074 30.55C67.7074 30.0124 67.4592 29.7436 66.9629 29.7436C66.3631 29.7436 65.7771 29.9917 65.2119 30.4879C64.6431 30.9842 64.1261 31.6217 63.6608 32.397C63.1954 33.1724 62.8232 33.9891 62.544 34.8472C62.2648 35.7052 62.1235 36.4978 62.1235 37.218C62.1235 37.8797 62.2648 38.4276 62.544 38.8618C62.8232 39.296 63.2816 39.5131 63.9227 39.5131C64.7707 39.5131 65.5152 39.2409 66.1563 38.6929C66.7974 38.145 67.3661 37.4524 67.8625 36.615C68.3588 35.7776 68.7931 34.9264 69.1654 34.058C69.2481 34.058 69.3308 34.0718 69.4136 34.1028C69.4963 34.1338 69.5376 34.2131 69.5376 34.3372C69.124 35.371 68.638 36.3324 68.0796 37.2215C67.5212 38.1106 66.887 38.8239 66.1701 39.3615C65.4566 39.8991 64.6224 40.1678 63.6711 40.1678V40.1644Z" fill="#2B1A12"/>
<path d="M66.1514 40.2887C67.02 38.5105 67.9231 36.6428 68.8675 34.6889C69.8085 32.735 70.7771 30.7673 71.7698 28.7824C72.7625 26.7974 73.7448 24.9056 74.7168 23.1067C75.0684 22.4865 75.3924 22.0006 75.6923 21.6491C75.9922 21.2976 76.3886 21.1218 76.8849 21.1218C77.071 21.1218 77.2882 21.1528 77.5364 21.2149C77.7845 21.2769 78.0224 21.2872 78.2499 21.2459C77.981 21.5353 77.6122 22.0419 77.1469 22.7656C76.6815 23.4893 76.1645 24.3577 75.5958 25.3708C75.0271 26.3839 74.4273 27.4763 73.7965 28.6445C73.1658 29.8127 72.5453 30.9913 71.9352 32.1802C71.3251 33.369 70.7599 34.4821 70.2428 35.5159C70.6565 34.9783 71.0804 34.4718 71.5147 33.9962C71.949 33.5207 72.373 33.1071 72.7866 32.7556C73.2416 32.3421 73.8138 31.9079 74.51 31.453C75.2028 30.9982 75.8957 30.6053 76.5885 30.2745C77.2813 29.9437 77.8328 29.7783 78.2464 29.7783C78.3912 29.7783 78.4946 29.7886 78.5566 29.8093C78.1017 30.6363 77.7053 31.3703 77.364 32.0113C77.0228 32.6523 76.6712 33.3449 76.3093 34.0893C75.9474 34.8336 75.6303 35.5435 75.3614 36.2155C75.0926 36.8874 74.9168 37.4422 74.834 37.8764C74.772 38.2073 74.741 38.4864 74.741 38.7138C74.741 39.0447 74.803 39.2686 74.9271 39.3824C75.0512 39.4961 75.1856 39.5512 75.3304 39.5512C75.682 39.5512 76.0611 39.372 76.4644 39.0102C76.8677 38.6484 77.2641 38.1866 77.657 37.6318C78.0499 37.0735 78.4188 36.4808 78.76 35.8467C79.1012 35.2161 79.377 34.6234 79.5803 34.0651C79.8285 34.0651 79.9526 34.1582 79.9526 34.3443C79.7251 34.9025 79.4425 35.5194 79.1012 36.1879C78.76 36.8599 78.3705 37.4974 77.9362 38.097C77.5019 38.6966 77.0262 39.1928 76.5092 39.5857C75.9922 39.9785 75.4441 40.175 74.8651 40.175C74.4514 40.175 74.0275 40.0302 73.5932 39.7408C73.1589 39.4513 72.9417 38.924 72.9417 38.159C72.9417 37.9316 72.9624 37.6904 73.0038 37.4285C73.0451 37.17 73.1175 36.8771 73.2209 36.5463C73.345 36.1328 73.5518 35.6744 73.8413 35.1679C74.1309 34.6613 74.5031 34.0272 74.9581 33.2588C75.1649 32.9073 75.2683 32.6281 75.2683 32.4214C75.2683 32.1733 75.1443 32.0492 74.8961 32.0492C74.6893 32.0492 74.4101 32.1526 74.0585 32.3593C73.7069 32.5661 73.2623 32.9279 72.7246 33.4448C72.2075 33.9411 71.5664 34.6647 70.8012 35.6159C70.036 36.567 69.2191 37.9006 68.3505 39.6167C68.2057 39.8855 68.0437 40.0268 67.868 40.0337C67.6922 40.044 67.4578 40.0578 67.1682 40.0785C66.9821 40.0991 66.796 40.1129 66.6099 40.1233C66.4237 40.1336 66.2686 40.1887 66.1445 40.2956L66.1514 40.2887Z" fill="#2B1A12"/>
<path d="M81.8179 40.1643C81.0527 40.1643 80.3634 39.9162 79.7533 39.42C79.1432 38.9237 78.8398 38.1691 78.8398 37.1559C78.8398 36.3082 79.0294 35.4088 79.4155 34.4577C79.7981 33.5066 80.3048 32.6141 80.9355 31.7732C81.5663 30.9358 82.2695 30.2535 83.045 29.7263C83.8205 29.199 84.5995 28.9371 85.3854 28.9371C85.7783 28.9371 86.161 29.0509 86.5332 29.2783C86.9055 29.5057 87.0916 29.8986 87.0916 30.4568C87.0916 30.9737 86.8951 31.5423 86.5022 32.1626C86.1092 32.7829 85.5509 33.3618 84.827 33.8994C84.5168 34.1269 84.1239 34.344 83.6482 34.5507C83.1725 34.7575 82.6969 34.9263 82.2212 35.0607C81.7455 35.1951 81.3526 35.2606 81.0424 35.2606C80.939 35.5087 80.8425 35.8395 80.746 36.2531C80.6529 36.6666 80.6081 37.0905 80.6081 37.5247C80.6081 38.0416 80.7115 38.5068 80.9183 38.9203C81.1251 39.3338 81.5077 39.5406 82.0661 39.5406C82.7486 39.5406 83.3862 39.3442 83.9756 38.9513C84.5651 38.5585 85.0924 38.0622 85.5577 37.4626C86.0231 36.863 86.4195 36.2531 86.7504 35.6328C87.0813 35.0125 87.3398 34.4852 87.5259 34.051C87.7741 34.051 87.8982 34.1441 87.8982 34.3302C87.6293 34.9091 87.3225 35.5397 86.9847 36.2221C86.6435 36.9044 86.2402 37.5419 85.7749 38.1312C85.3096 38.7204 84.7512 39.2063 84.0997 39.5888C83.4483 39.9713 82.6865 40.1643 81.8179 40.1643ZM81.2595 34.7058C81.5491 34.7058 82.0351 34.599 82.7175 34.3819C83.4 34.1648 84.0205 33.8202 84.5788 33.3412C85.1166 32.8656 85.5302 32.3453 85.8197 31.7767C86.1092 31.2081 86.254 30.7291 86.254 30.3362C86.254 29.8813 86.0886 29.6539 85.7577 29.6539C85.5095 29.6539 85.1683 29.8193 84.734 30.1501C84.2997 30.481 83.7619 31.0392 83.1208 31.8249C82.7279 32.3211 82.3556 32.8587 82.004 33.4377C81.6525 34.0166 81.4043 34.4405 81.2595 34.7092V34.7058Z" fill="#2B1A12"/>
<path d="M89.0773 40.1335C88.2087 40.1335 87.6193 39.9026 87.3091 39.4374C86.9989 38.9722 86.8438 38.4174 86.8438 37.7764C86.8438 37.2802 86.9265 36.6495 87.0919 35.8845C87.2574 35.1195 87.4745 34.2993 87.7434 33.4172C88.0122 32.5384 88.2914 31.67 88.581 30.812C88.8705 29.9539 89.1566 29.1785 89.4323 28.4859C89.7115 27.7932 89.9321 27.2522 90.101 26.8594C89.6047 26.88 89.16 26.9524 88.7671 27.0765C88.3742 27.2005 88.0019 27.552 87.6503 28.1309L87.5573 28.286C87.4952 28.3687 87.4332 28.4101 87.3711 28.4101C87.3091 28.4101 87.2574 28.3791 87.216 28.317C87.1747 28.255 87.1643 28.1826 87.185 28.0999C87.4538 27.3969 87.8985 26.8904 88.5189 26.5802C89.1394 26.2701 89.7908 26.0943 90.4733 26.053C90.7215 25.5568 91.0041 24.995 91.3247 24.361C91.6452 23.7304 92.0106 23.1273 92.4276 22.5484C92.8413 21.9694 93.2894 21.4904 93.7788 21.1045C94.2648 20.722 94.7853 20.529 95.3437 20.529C95.84 20.529 96.1709 20.7978 96.3364 21.3354C95.7573 21.4594 95.2024 21.7971 94.675 22.3416C94.1476 22.8895 93.672 23.5064 93.248 24.1852C92.824 24.8675 92.4862 25.4775 92.2415 26.0151C92.9654 26.0358 93.765 26.0874 94.644 26.1701C95.5229 26.2529 96.3536 26.3045 97.1429 26.3252C97.5566 25.4568 98.0219 24.5781 98.5389 23.689C99.0559 22.7999 99.604 22.0521 100.183 21.4387C100.762 20.8288 101.352 20.5221 101.951 20.5221C102.448 20.5221 102.779 20.7909 102.944 21.3285C102.489 21.4318 102.024 21.742 101.548 22.2589C101.072 22.7758 100.61 23.403 100.169 24.137C99.7246 24.871 99.3144 25.5912 98.9422 26.2908C99.5006 26.2701 100.083 26.2149 100.693 26.1185C101.303 26.0254 101.841 25.8703 102.306 25.6532C102.772 25.4361 103.075 25.1398 103.22 24.7676C103.468 24.7676 103.592 24.84 103.592 24.9847C103.406 25.5016 103.037 25.9151 102.492 26.2253C101.944 26.5354 101.307 26.7629 100.583 26.9076C99.8591 27.0523 99.1559 27.1454 98.4734 27.1867C98.4114 27.3315 98.3493 27.4659 98.2873 27.5899C98.2252 27.714 98.1632 27.838 98.1012 27.9621L97.9771 28.2412C97.7496 28.6961 97.4704 29.3474 97.1395 30.1951C96.8086 31.0428 96.4777 31.9423 96.1468 32.8934C95.8159 33.8445 95.5436 34.7439 95.3264 35.5916C95.1093 36.4393 94.999 37.101 94.999 37.5765C94.999 38.1968 95.1265 38.6586 95.385 38.9549C95.6436 39.2547 95.9607 39.4064 96.3329 39.4064C96.8086 39.4064 97.2808 39.1996 97.7427 38.7861C98.208 38.3726 98.6458 37.8625 99.0628 37.2491C99.4765 36.6392 99.8384 36.0396 100.149 35.4503C100.459 34.861 100.686 34.3924 100.831 34.0409C101.079 34.0409 101.203 34.1339 101.203 34.32C100.997 34.7956 100.731 35.3573 100.414 36.0086C100.093 36.6599 99.7108 37.3008 99.2662 37.9315C98.8216 38.5621 98.2976 39.0859 97.7013 39.496C97.1016 39.9095 96.4294 40.1162 95.6849 40.1162C94.8163 40.1162 94.2269 39.8888 93.9167 39.4339C93.6065 38.9791 93.4514 38.4208 93.4514 37.7592C93.4514 37.387 93.4927 36.9528 93.5754 36.4566C93.2445 37.0562 92.862 37.6351 92.4276 38.1934C91.9933 38.7516 91.5004 39.2134 90.9524 39.5718C90.4043 39.9336 89.777 40.1128 89.0739 40.1128L89.0773 40.1335ZM88.3948 37.5903C88.3948 38.2106 88.5224 38.6724 88.7809 38.9687C89.0394 39.2685 89.3565 39.4202 89.7288 39.4202C90.1424 39.4202 90.5595 39.2479 90.9834 38.9067C91.4074 38.5655 91.8107 38.1417 92.1933 37.6351C92.5759 37.1285 92.9205 36.6013 93.2308 36.0534C93.541 35.5055 93.7891 35.0161 93.9753 34.5819C94.1821 33.7962 94.4234 33.0002 94.7026 32.1938C94.9818 31.3874 95.2575 30.6431 95.5264 29.9608C95.7952 29.2785 96.0227 28.7202 96.2088 28.286L96.3329 28.0069C96.395 27.8828 96.457 27.7553 96.5191 27.6209C96.5811 27.4865 96.6431 27.3487 96.7052 27.204C95.8573 27.1626 94.9783 27.0868 94.0683 26.9731C93.1584 26.8594 92.4242 26.8146 91.8658 26.8318C91.6797 27.204 91.4487 27.7519 91.1661 28.4755C90.8869 29.1992 90.587 30.0021 90.2665 30.8809C89.9459 31.7596 89.6391 32.6452 89.3496 33.5309C89.0601 34.42 88.8257 35.2263 88.6499 35.95C88.4741 36.6737 88.3879 37.2216 88.3879 37.5938L88.3948 37.5903Z" fill="#2B1A12"/>
<path d="M107.538 40.1333C107.062 40.1333 106.641 39.9989 106.283 39.7301C105.921 39.4613 105.738 38.9134 105.738 38.0864C105.738 37.7349 105.762 37.404 105.814 37.0939C105.866 36.7838 105.931 36.4529 106.014 36.1014C105.828 36.4116 105.569 36.7941 105.239 37.249C104.908 37.7038 104.542 38.1484 104.139 38.5826C103.736 39.0168 103.322 39.3786 102.898 39.6681C102.474 39.9576 102.078 40.1023 101.706 40.1023C101.168 40.1023 100.733 39.8611 100.403 39.3752C100.072 38.8893 99.9062 38.2552 99.9062 37.4661C99.9062 36.6183 100.103 35.7086 100.496 34.7368C100.889 33.765 101.426 32.8346 102.109 31.9455C102.791 31.0564 103.577 30.3328 104.466 29.7745C105.356 29.2163 106.286 28.9371 107.258 28.9371C107.734 28.9371 108.189 29.0129 108.623 29.168C109.058 29.3231 109.44 29.5781 109.771 29.9296C109.916 30.0743 109.988 30.2397 109.988 30.4258C109.988 30.5499 109.937 30.6533 109.833 30.736C109.73 30.8187 109.595 30.8393 109.43 30.798C109.202 30.0743 108.716 29.7125 107.972 29.7125C107.62 29.7125 107.217 29.8262 106.762 30.0536C106.204 30.3431 105.607 30.8049 104.98 31.4355C104.349 32.0661 103.76 32.7795 103.212 33.5755C102.664 34.3715 102.212 35.171 101.861 35.9774C101.509 36.7838 101.333 37.5178 101.333 38.1794C101.333 38.841 101.592 39.2029 102.109 39.2029C102.564 39.2029 103.033 38.9858 103.519 38.5516C104.005 38.1174 104.47 37.5763 104.915 36.925C105.359 36.2737 105.766 35.6293 106.138 34.9884C106.51 34.3474 106.8 33.8305 107.007 33.4377C107.317 32.8794 107.607 32.4142 107.875 32.042C108.144 31.6698 108.527 31.4838 109.023 31.4838C109.251 31.4838 109.478 31.5148 109.706 31.5768C109.933 31.6388 110.171 31.6492 110.419 31.6078C109.799 32.2281 109.254 32.9621 108.792 33.8098C108.327 34.6576 107.968 35.4915 107.72 36.3082C107.472 37.1249 107.348 37.8107 107.348 38.3689C107.348 38.9892 107.555 39.2994 107.968 39.2994C108.299 39.2994 108.654 39.1133 109.04 38.7411C109.423 38.3689 109.795 37.9003 110.157 37.3317C110.519 36.7631 110.853 36.1841 111.164 35.5949C111.474 35.0056 111.722 34.4921 111.908 34.0579C112.012 34.0579 112.098 34.0683 112.17 34.089C112.243 34.1096 112.28 34.1923 112.28 34.3371C112.26 34.4198 112.222 34.5059 112.17 34.599C112.118 34.692 112.039 34.854 111.939 35.078C111.774 35.4088 111.546 35.8533 111.257 36.4116C110.967 36.9698 110.626 37.535 110.233 38.1036C109.84 38.6722 109.416 39.1546 108.961 39.544C108.506 39.9369 108.03 40.1333 107.534 40.1333H107.538Z" fill="#2B1A12"/>
</svg>
