<svg width="24" height="24" viewBox="0 0 24 24" fill="none" xmlns="http://www.w3.org/2000/svg">
<path d="M12.7132 6.2349L13.2484 7.8801C13.7544 7.44849 14.3427 7.12395 14.9776 6.9261C15.6856 6.6957 16.3108 6.5661 16.876 6.4917L16.36 4.9041C15.7166 4.99697 15.0823 5.1447 14.464 5.3457C13.8379 5.54967 13.2473 5.84965 12.7132 6.2349ZM13.8256 9.6609L14.3608 11.3061C14.8668 10.8745 15.4551 10.55 16.09 10.3521C16.798 10.1217 17.4232 9.9921 17.9884 9.9177L17.4724 8.3301C16.829 8.42297 16.1947 8.5707 15.5764 8.7717C14.9496 8.97384 14.3586 9.27395 13.8256 9.6609ZM14.9392 13.0857L15.4744 14.7309C15.9804 14.2993 16.5687 13.9748 17.2036 13.7769C17.9116 13.5465 18.5368 13.4169 19.102 13.3425L18.586 11.7549C17.9426 11.8478 17.3083 11.9955 16.69 12.1965C16.0632 12.3986 15.4722 12.6988 14.9392 13.0857ZM6.46483 15.6921L6.98083 17.2797C7.55256 16.9701 8.15197 16.7146 8.77123 16.5165C9.40126 16.3037 10.0679 16.2208 10.7308 16.2729L10.1956 14.6277C9.53757 14.6296 8.88379 14.7337 8.25763 14.9361C7.63937 15.136 7.03954 15.3889 6.46483 15.6921ZM4.23883 8.8413L4.75483 10.4289C5.32745 10.1211 5.92668 9.86569 6.54523 9.6657C7.17526 9.4529 7.84188 9.37003 8.50483 9.4221L7.97083 7.7757C7.3123 7.77788 6.6581 7.88232 6.03163 8.0853C5.41337 8.28519 4.81354 8.53813 4.23883 8.8413ZM5.35123 12.2673L5.86723 13.8549C6.43896 13.5453 7.03837 13.2898 7.65763 13.0917C8.28766 12.8789 8.95428 12.796 9.61723 12.8481L9.08323 11.2017C8.42517 11.2036 7.77139 11.3077 7.14523 11.5101C6.52652 11.7103 5.92629 11.9637 5.35123 12.2673ZM13.276 1.6917C11.6995 2.19539 10.3838 3.29816 9.61243 4.7625C8.12791 4.03188 6.41586 3.91338 4.84483 4.4325C1.81723 5.4165 0.0820312 7.5849 0.0820312 7.5849L4.99603 22.6893C5.14723 23.1537 5.77123 23.2617 6.04963 22.8609C6.64843 21.9981 7.80163 20.8713 9.95803 20.1705C12.0196 19.5009 13.5208 20.2353 14.344 20.8641C14.6704 21.1137 15.1384 20.9361 15.2584 20.5425C15.5608 19.5501 16.3468 18.0945 18.3904 17.4309C20.5492 16.7289 22.1452 16.9641 23.1376 17.3109C23.5996 17.4717 24.0376 17.0205 23.8876 16.5561L18.982 1.4433C18.982 1.4433 16.3036 0.708896 13.276 1.6917ZM13.1404 18.3069C11.9086 17.9355 10.5921 17.9539 9.37123 18.3597C7.87003 18.8469 6.81883 19.4985 6.13243 20.0445L2.23843 8.0661C2.66803 7.6365 3.66283 6.8157 5.43283 6.2409C7.09963 5.6997 8.46643 6.1629 9.36763 6.6945L13.1404 18.3069ZM21.4132 15.0801C20.536 15.0417 19.3024 15.1329 17.8012 15.6213C16.5751 16.0105 15.4992 16.7691 14.7208 17.7933L10.948 6.1809C11.3632 5.2209 12.196 4.0425 13.864 3.5013C15.6328 2.9265 16.9204 3.0057 17.5204 3.1005L21.4132 15.0801Z" fill="#705A5A"/>
</svg>
