<svg width="50" height="50" viewBox="0 0 50 50" fill="none" xmlns="http://www.w3.org/2000/svg">
<path d="M35.4167 41.6673C37.7179 41.6673 39.5833 39.8018 39.5833 37.5007C39.5833 35.1995 37.7179 33.334 35.4167 33.334C33.1155 33.334 31.25 35.1995 31.25 37.5007C31.25 39.8018 33.1155 41.6673 35.4167 41.6673Z" stroke="#705A5A" stroke-width="3"/>
<path d="M14.5807 41.6673C16.8819 41.6673 18.7474 39.8018 18.7474 37.5007C18.7474 35.1995 16.8819 33.334 14.5807 33.334C12.2795 33.334 10.4141 35.1995 10.4141 37.5007C10.4141 39.8018 12.2795 41.6673 14.5807 41.6673Z" stroke="#705A5A" stroke-width="3"/>
<path d="M10.4141 37.4423C8.12865 37.3298 6.70573 36.9902 5.68906 35.9757C4.6724 34.9611 4.3349 33.5361 4.2224 31.2507M18.7474 37.5007H31.2474M39.5807 37.4423C41.8661 37.3298 43.2891 36.9902 44.3057 35.9757C45.8307 34.4486 45.8307 31.9944 45.8307 27.084V22.9173H36.0391C34.487 22.9173 33.712 22.9173 33.0849 22.7132C32.4596 22.51 31.8912 22.1617 31.4263 21.6967C30.9614 21.2318 30.6131 20.6635 30.4099 20.0382C30.2057 19.4111 30.2057 18.6361 30.2057 17.084C30.2057 14.7569 30.2057 13.5944 29.8995 12.6527C29.5947 11.7148 29.0722 10.8622 28.3749 10.1649C27.6775 9.46748 26.8249 8.94503 25.887 8.64023C24.9453 8.33398 23.7828 8.33398 21.4557 8.33398H4.16406M4.16406 16.6673H16.6641M4.16406 22.9173H12.4974" stroke="#705A5A" stroke-width="3" stroke-linecap="round" stroke-linejoin="round"/>
<path d="M30.2051 12.5H33.9988C37.0322 12.5 38.5467 12.5 39.7801 13.2375C41.0155 13.9729 41.7342 15.3083 43.1717 17.9792L45.8301 22.9167" stroke="#705A5A" stroke-width="3" stroke-linecap="round" stroke-linejoin="round"/>
</svg>
