<svg width="174" height="174" viewBox="0 0 174 174" fill="none" xmlns="http://www.w3.org/2000/svg">
<rect width="174" height="174" rx="87" fill="#E3D6BF"/>
<path d="M103.667 113.667C107.349 113.667 110.333 110.683 110.333 107.001C110.333 103.319 107.349 100.334 103.667 100.334C99.9848 100.334 97 103.319 97 107.001C97 110.683 99.9848 113.667 103.667 113.667Z" stroke="#705A5A" stroke-width="5"/>
<path d="M70.3307 113.667C74.0126 113.667 76.9974 110.683 76.9974 107.001C76.9974 103.319 74.0126 100.334 70.3307 100.334C66.6488 100.334 63.6641 103.319 63.6641 107.001C63.6641 110.683 66.6488 113.667 70.3307 113.667Z" stroke="#705A5A" stroke-width="5"/>
<path d="M63.6641 106.907C60.0074 106.727 57.7307 106.184 56.1041 104.561C54.4774 102.937 53.9374 100.657 53.7574 97.0007M76.9974 107.001H96.9974M110.331 106.907C113.987 106.727 116.264 106.184 117.891 104.561C120.331 102.117 120.331 98.1907 120.331 90.334V83.6673H104.664C102.181 83.6673 100.941 83.6673 99.9374 83.3407C98.9369 83.0155 98.0275 82.4583 97.2837 81.7144C96.5398 80.9705 95.9825 80.0612 95.6574 79.0607C95.3307 78.0573 95.3307 76.8173 95.3307 74.334C95.3307 70.6107 95.3307 68.7507 94.8407 67.244C94.3531 65.7432 93.5171 64.3792 92.4013 63.2634C91.2855 62.1476 89.9215 61.3117 88.4207 60.824C86.9141 60.334 85.0541 60.334 81.3307 60.334H53.6641M53.6641 73.6673H73.6641M53.6641 83.6673H66.9974" stroke="#705A5A" stroke-width="5" stroke-linecap="round" stroke-linejoin="round"/>
<path d="M95.3281 67H101.398C106.251 67 108.675 67 110.648 68.18C112.625 69.3567 113.775 71.4933 116.075 75.7667L120.328 83.6667" stroke="#705A5A" stroke-width="5" stroke-linecap="round" stroke-linejoin="round"/>
</svg>
