<svg width="50" height="50" viewBox="0 0 50 50" fill="none" xmlns="http://www.w3.org/2000/svg">
<path d="M20.8346 34.3757L27.0846 36.459C27.0846 36.459 42.7096 33.334 44.793 33.334C46.8763 33.334 46.8763 35.4173 44.793 37.5007C42.7096 39.584 35.418 45.834 29.168 45.834C22.918 45.834 18.7513 42.709 14.5846 42.709H4.16797" stroke="#705A5A" stroke-width="3" stroke-linecap="round" stroke-linejoin="round"/>
<path d="M4.16797 30.209C6.2513 28.1257 10.418 25.0007 14.5846 25.0007C18.7513 25.0007 28.6471 29.1673 30.2096 31.2507C31.7721 33.334 27.0846 36.459 27.0846 36.459M16.668 18.7507V10.4173C16.668 9.86478 16.8875 9.33488 17.2782 8.94418C17.6689 8.55348 18.1988 8.33398 18.7513 8.33398H43.7513C44.3038 8.33398 44.8337 8.55348 45.2244 8.94418C45.6151 9.33488 45.8346 9.86478 45.8346 10.4173V27.084" stroke="#705A5A" stroke-width="3" stroke-linecap="round" stroke-linejoin="round"/>
<path d="M26.043 8.33398H36.4596V17.709H26.043V8.33398Z" stroke="#705A5A" stroke-width="3" stroke-linecap="round" stroke-linejoin="round"/>
</svg>
