<svg width="25" height="25" viewBox="0 0 25 25" fill="none" xmlns="http://www.w3.org/2000/svg">
<path d="M12.5 8.85938C10.4844 8.85938 8.85937 10.5 8.85937 12.5C8.85937 14.5 10.5 16.1406 12.5 16.1406C14.5 16.1406 16.1406 14.5 16.1406 12.5C16.1406 10.5 14.5 8.85938 12.5 8.85938ZM23.4375 12.5C23.4375 10.9844 23.4375 9.5 23.3594 7.98438C23.2812 6.23438 22.875 4.67188 21.5937 3.40625C20.3125 2.125 18.7656 1.71875 17.0156 1.64062C15.5 1.5625 14.0156 1.5625 12.5 1.5625C10.9844 1.5625 9.5 1.5625 7.98437 1.64062C6.23438 1.71875 4.67187 2.125 3.40625 3.40625C2.125 4.6875 1.71875 6.23438 1.64062 7.98438C1.5625 9.5 1.5625 10.9844 1.5625 12.5C1.5625 14.0156 1.5625 15.5 1.64062 17.0156C1.71875 18.7656 2.125 20.3281 3.40625 21.5938C4.6875 22.875 6.23438 23.2812 7.98437 23.3594C9.5 23.4375 10.9844 23.4375 12.5 23.4375C14.0156 23.4375 15.5 23.4375 17.0156 23.3594C18.7656 23.2812 20.3281 22.875 21.5937 21.5938C22.875 20.3125 23.2812 18.7656 23.3594 17.0156C23.4531 15.5156 23.4375 14.0156 23.4375 12.5ZM12.5 18.1094C9.39062 18.1094 6.89062 15.6094 6.89062 12.5C6.89062 9.39062 9.39062 6.89062 12.5 6.89062C15.6094 6.89062 18.1094 9.39062 18.1094 12.5C18.1094 15.6094 15.6094 18.1094 12.5 18.1094ZM18.3437 7.96875C17.625 7.96875 17.0312 7.39063 17.0312 6.65625C17.0312 5.92188 17.6094 5.34375 18.3437 5.34375C19.0781 5.34375 19.6562 5.92188 19.6562 6.65625C19.6602 6.8274 19.629 6.99754 19.5645 7.15612C19.4999 7.3147 19.4036 7.45833 19.2812 7.57812C19.1615 7.70043 19.0178 7.79682 18.8592 7.86133C18.7007 7.92583 18.5305 7.95708 18.3594 7.95312L18.3437 7.96875Z" fill="#705A5A"/>
</svg>
