<svg width="50" height="50" viewBox="0 0 50 50" fill="none" xmlns="http://www.w3.org/2000/svg">
<path d="M23.2214 14.6312C24.0131 13.2083 24.4089 12.5 25.0006 12.5C25.5923 12.5 25.9881 13.2083 26.7798 14.6312L26.9839 14.9979C27.2089 15.4021 27.3214 15.6021 27.4964 15.7354C27.6735 15.8687 27.8922 15.9188 28.3297 16.0167L28.7256 16.1083C30.2631 16.4562 31.0318 16.6292 31.2152 17.2167C31.3985 17.8042 30.8735 18.4187 29.8256 19.6437L29.5547 19.9604C29.2568 20.3083 29.1068 20.4813 29.0402 20.6979C28.9735 20.9146 28.9964 21.1458 29.0402 21.6104L29.0818 22.0333C29.2402 23.6688 29.3193 24.4875 28.8422 24.85C28.3631 25.2125 27.6422 24.8812 26.2027 24.2187L25.8318 24.0479C25.4214 23.8604 25.2173 23.7667 25.0006 23.7667C24.7839 23.7667 24.5797 23.8604 24.1693 24.0479L23.7985 24.2187C22.3589 24.8833 21.6381 25.2125 21.1589 24.85C20.6798 24.4875 20.761 23.6688 20.9193 22.0333L20.961 21.6104C21.0047 21.1458 21.0277 20.9146 20.961 20.6979C20.8943 20.4813 20.7443 20.3083 20.4464 19.9604L20.1756 19.6437C19.1277 18.4187 18.6027 17.8062 18.786 17.2167C18.9693 16.6292 19.7381 16.4562 21.2756 16.1083L21.6714 16.0167C22.1089 15.9188 22.3277 15.8708 22.5048 15.7354C22.6798 15.6021 22.7923 15.4021 23.0173 14.9979L23.2214 14.6312Z" stroke="#705A5A" stroke-width="3"/>
<path d="M15.3143 31.25L13.9872 36.0896C12.6789 40.8646 12.0247 43.2521 12.8976 44.5583C13.2039 45.0167 13.6143 45.3833 14.0914 45.6271C15.4497 46.3187 17.5497 45.225 21.7476 43.0375C23.1435 42.3083 23.8435 41.9458 24.5851 41.8667C24.8608 41.8391 25.1386 41.8391 25.4143 41.8667C26.156 41.9458 26.8539 42.3104 28.2518 43.0375C32.4497 45.225 34.5497 46.3187 35.908 45.6271C36.3851 45.3833 36.7955 45.0167 37.1018 44.5583C37.9768 43.2521 37.3205 40.8646 36.0122 36.0896L34.6851 31.25" stroke="#705A5A" stroke-width="3" stroke-linecap="round"/>
<path d="M11.4587 13.3274C10.2103 16.4458 10.0766 19.8996 11.0804 23.1052C12.0841 26.3107 14.1637 29.0715 16.9677 30.921C19.7717 32.7705 23.1282 33.5954 26.47 33.2562C29.8119 32.917 32.9342 31.4346 35.3094 29.0594C37.6846 26.6842 39.167 23.5619 39.5062 20.22C39.8454 16.8782 39.0205 13.5217 37.171 10.7177C35.3215 7.91367 32.5607 5.83412 29.3552 4.83038C26.1496 3.82664 22.6958 3.96026 19.5774 5.20866" stroke="#705A5A" stroke-width="3" stroke-linecap="round"/>
</svg>
