<svg width="25" height="25" viewBox="0 0 25 25" fill="none" xmlns="http://www.w3.org/2000/svg">
<path fill-rule="evenodd" clip-rule="evenodd" d="M20.6016 4.61461C20.859 4.50627 21.1407 4.4689 21.4175 4.5064C21.6943 4.54389 21.9559 4.65489 22.1752 4.82782C22.3945 5.00076 22.5635 5.22931 22.6645 5.48969C22.7655 5.75008 22.7948 6.03278 22.7495 6.30836L20.387 20.6386C20.1578 22.0209 18.6412 22.8136 17.3735 22.125C16.313 21.549 14.738 20.6615 13.3214 19.7354C12.613 19.2719 10.4432 17.7875 10.7099 16.7313C10.9391 15.8282 14.5849 12.4344 16.6682 10.4167C17.486 9.62398 17.113 9.16669 16.1474 9.89586C13.7495 11.7063 9.89949 14.4594 8.62658 15.2344C7.50366 15.9177 6.91824 16.0344 6.21824 15.9177C4.94116 15.7052 3.75678 15.3761 2.79012 14.975C1.48387 14.4334 1.54741 12.6375 2.78908 12.1146L20.6016 4.61461Z" fill="#705A5A"/>
</svg>
