<svg width="30" height="30" viewBox="0 0 30 30" fill="none" xmlns="http://www.w3.org/2000/svg">
<path d="M15 2.5C16.0375 2.49991 17.0357 2.89675 17.7899 3.60914C18.5441 4.32152 18.9972 5.29546 19.0562 6.33125L19.0625 6.5625L19.0638 16.5025L19.1638 16.5887C20.3276 17.6281 21.0607 19.0651 21.2188 20.6175L21.2425 20.9325L21.25 21.25C21.2502 22.2798 20.9959 23.2936 20.5098 24.2014C20.0237 25.1093 19.3208 25.8829 18.4637 26.4536C17.6065 27.0243 16.6216 27.3743 15.5965 27.4726C14.5714 27.5709 13.538 27.4143 12.588 27.0169C11.638 26.6195 10.8009 25.9935 10.1512 25.1946C9.50142 24.3957 9.05914 23.4486 8.86365 22.4376C8.66816 21.4265 8.72552 20.3829 9.03063 19.3993C9.33573 18.4158 9.87912 17.5229 10.6125 16.8L10.8375 16.5875L10.9362 16.5025L10.9375 6.5625C10.9373 5.56413 11.3047 4.60064 11.9697 3.85593C12.6346 3.11122 13.5505 2.63743 14.5425 2.525L14.77 2.50625L15 2.5ZM15 4.375C14.4508 4.37505 13.9217 4.58166 13.5179 4.95381C13.114 5.32596 12.8649 5.8364 12.82 6.38375L12.8125 6.5625V17.4312L12.4263 17.7112C11.6883 18.248 11.1366 19.0021 10.8485 19.868C10.5604 20.7339 10.5503 21.6682 10.8195 22.5401C11.0888 23.412 11.6239 24.1779 12.35 24.7306C13.0762 25.2833 13.957 25.5951 14.8691 25.6223C15.7812 25.6496 16.679 25.3909 17.4369 24.8826C18.1947 24.3743 18.7747 23.6417 19.0955 22.7874C19.4163 21.9331 19.462 20.9999 19.2261 20.1184C18.9902 19.2369 18.4846 18.4511 17.78 17.8713L17.5738 17.7125L17.19 17.4312L17.1875 6.5625C17.1875 5.98234 16.957 5.42594 16.5468 5.0157C16.1366 4.60547 15.5802 4.375 15 4.375ZM15 10C15.2486 10 15.4871 10.0988 15.6629 10.2746C15.8387 10.4504 15.9375 10.6889 15.9375 10.9375V18.2687C16.6501 18.4927 17.2589 18.9645 17.6537 19.5985C18.0486 20.2326 18.2034 20.9871 18.0901 21.7254C17.9768 22.4637 17.6029 23.137 17.036 23.6235C16.4692 24.1099 15.7469 24.3774 15 24.3774C14.2531 24.3774 13.5308 24.1099 12.964 23.6235C12.3971 23.137 12.0232 22.4637 11.9099 21.7254C11.7966 20.9871 11.9514 20.2326 12.3463 19.5985C12.7411 18.9645 13.3499 18.4927 14.0625 18.2687V10.9375C14.0625 10.6889 14.1613 10.4504 14.3371 10.2746C14.5129 10.0988 14.7514 10 15 10Z" fill="#705A5A"/>
</svg>
