<svg width="30" height="30" viewBox="0 0 30 30" fill="none" xmlns="http://www.w3.org/2000/svg">
<path d="M11.25 7.5C11.25 8.49456 11.6451 9.44839 12.3483 10.1517C13.0516 10.8549 14.0054 11.25 15 11.25C15.9946 11.25 16.9484 10.8549 17.6517 10.1517C18.3549 9.44839 18.75 8.49456 18.75 7.5C18.75 6.50544 18.3549 5.55161 17.6517 4.84835C16.9484 4.14509 15.9946 3.75 15 3.75C14.0054 3.75 13.0516 4.14509 12.3483 4.84835C11.6451 5.55161 11.25 6.50544 11.25 7.5Z" stroke="#705A5A" stroke-width="2" stroke-linecap="round" stroke-linejoin="round"/>
<path d="M8.54351 11.25H21.456C21.7488 11.25 22.0322 11.3527 22.257 11.5402C22.4818 11.7277 22.6336 11.9882 22.686 12.2763L24.7323 23.5262C24.765 23.7064 24.7578 23.8916 24.7112 24.0686C24.6645 24.2457 24.5795 24.4104 24.4621 24.551C24.3448 24.6915 24.198 24.8046 24.0321 24.8822C23.8663 24.9598 23.6854 25 23.5023 25H6.49726C6.31414 25 6.13325 24.9598 5.96739 24.8822C5.80152 24.8046 5.65473 24.6915 5.53739 24.551C5.42006 24.4104 5.33505 24.2457 5.28837 24.0686C5.24169 23.8916 5.23448 23.7064 5.26726 23.5262L7.31351 12.2763C7.36591 11.9882 7.51774 11.7277 7.74251 11.5402C7.96729 11.3527 8.25077 11.25 8.54351 11.25Z" stroke="#705A5A" stroke-width="2" stroke-linecap="round" stroke-linejoin="round"/>
</svg>
